#format: frame checksums
#version: 2
#hash: MD5
#tb 0: 1/15
#media_type 0: video
#codec_id 0: rawvideo
#dimensions 0: 320x180
#sar 0: 0/1
#tb 1: 1/44100
#media_type 1: audio
#codec_id 1: pcm_s16le
#sample_rate 1: 44100
#channel_layout_name 1: stereo
#stream#, dts,        pts, duration,     size, hash
0,          0,          0,        1,   172800, b7226dd447a0d04dc10dbba51073e198
1,          0,          0,    22050,    88200, e9ded829730eccd2d0273d7cc06be58c
0,          1,          1,        1,   172800, a035f4f7707954189291ef9de67544e8
0,          2,          2,        1,   172800, a5187f2220c062357feb6c8b609fa05c
0,          3,          3,        1,   172800, 1149cbdd5c716ebfec9de37a87554a97
0,          4,          4,        1,   172800, e99a1cc9fee42e40b2ac0cfcfcbf1fcf
0,          5,          5,        1,   172800, 6b5f5e1e95a43a9b44dfa347e0384495
0,          6,          6,        1,   172800, 56e8cc40426a730b945df5cbf8b90652
0,          7,          7,        1,   172800, 93a00ae2c69afa31920161f57b5b255f
1,      22050,      22050,    22050,    88200, e9ded829730eccd2d0273d7cc06be58c
0,          8,          8,        1,   172800, d9658cdd62cce8dc69a29c036c2110a6
0,          9,          9,        1,   172800, 2bfc66320d4f10b93575feab0dd916da
0,         10,         10,        1,   172800, 6ccc8be17a2f6ac0733d65e9043ac1f9
0,         11,         11,        1,   172800, ddba4b50b9204864df0e75f417075e52
0,         12,         12,        1,   172800, 752de832a7ce585352419fb7b4ea5746
0,         13,         13,        1,   172800, 7d6594ec9a225a7e047ae864026624eb
0,         14,         14,        1,   172800, 0bfe8be8b8973047c1332b0c987c3558
0,         15,         15,        1,   172800, 7afd9b634eaf9ba219114bf4f581de55
1,      44100,      44100,    22050,    88200, e9ded829730eccd2d0273d7cc06be58c
0,         16,         16,        1,   172800, e24accccbee9adf6f51bcacc6bb38ebe
0,         17,         17,        1,   172800, 62f0fe26bd71e21efbcc0d2b45d8eb79
0,         18,         18,        1,   172800, 5f6b73defd3a6b7d15e0b1e6032e0432
0,         19,         19,        1,   172800, 4f6319cc91e0b5b2f00808c16926f07a
0,         20,         20,        1,   172800, daa81d58a0c1b7fe5b9d8e16d9e1c315
0,         21,         21,        1,   172800, 71ee4fe9a426c76db6ad30e4beea1dc3
0,         22,         22,        1,   172800, e03bbd65614b23a4e0d375247788f163
1,      66150,      66150,    22050,    88200, e9ded829730eccd2d0273d7cc06be58c
0,         23,         23,        1,   172800, c2bb2eb22fea9673952b6d29f5be9059
0,         24,         24,        1,   172800, ac7dfb95471828c7bb8e474b59e29d21
0,         25,         25,        1,   172800, 38d744bb2f77e426367153e3adaef2ca
0,         26,         26,        1,   172800, 14e24dce06ab5eefa265afb5e2c3c54c
0,         27,         27,        1,   172800, 16c10164e553283592ec1c72b50a05f6
0,         28,         28,        1,   172800, 5e8818e82ca633ec62b670e6a66c2501
0,         29,         29,        1,   172800, 78d20b5c38f6daecccfcd9ec83ee70f9
0,         30,         30,        1,   172800, 55440428f01d8b74e21f4e1f52ed0962
1,      88200,      88200,    22050,    88200, e9ded829730eccd2d0273d7cc06be58c
0,         31,         31,        1,   172800, a2a7c0695c02eeceb8b3edc77ecea04f
0,         32,         32,        1,   172800, 4289e1e103781a6d02caa112e7474a9d
0,         33,         33,        1,   172800, b465ca65c31d7ad05536a6b3fc33d44d
0,         34,         34,        1,   172800, 7ea804feebbeaac00ca5466e1b5fa930
0,         35,         35,        1,   172800, aca23d4c13c9c1892a5b34ac72fc3db0
0,         36,         36,        1,   172800, edcef5d2859c70289a35014d7a2dd5b7
0,         37,         37,        1,   172800, 8f2b8800de04f1c7342c260fc9dcb428
1,     110250,     110250,    22050,    88200, e9ded829730eccd2d0273d7cc06be58c
0,         38,         38,        1,   172800, 61129a161f0e8dd11f72251989780f33
0,         39,         39,        1,   172800, dd42ba19b4d56b08d31f41daa05e98de
0,         40,         40,        1,   172800, ce3805e4ccd213cd63c4af5e9879c15f
0,         41,         41,        1,   172800, 64545e711e9ee925fc7e503a72ca3955
0,         42,         42,        1,   172800, 31eccb06afc3b45ad610cdeb4de5e7b7
0,         43,         43,        1,   172800, 0f71085a13933dcc1dca3b29946bebe5
0,         44,         44,        1,   172800, ba59f6192e164dbaf4f47dec81321942
0,         45,         45,        1,   172800, be5a074e509c65c486d048884db566e8
1,     132300,     132300,    22050,    88200, e9ded829730eccd2d0273d7cc06be58c
0,         46,         46,        1,   172800, c7d6940eddd83bd415bfc155ceb28466
0,         47,         47,        1,   172800, 407de091cd6976419b4dea6612647ed8
0,         48,         48,        1,   172800, 9c182b6a7583da63aade7a8d3060cb56
0,         49,         49,        1,   172800, d2e8922f3c1ce08ef3a75f58b2ccf181
0,         50,         50,        1,   172800, 3259c921217b546b852af8f2090150e8
0,         51,         51,        1,   172800, 366e35df3f3579b538368ba98bc215eb
0,         52,         52,        1,   172800, eb1a46a5208405d713606ee8121bae49
1,     154350,     154350,    22050,    88200, e9ded829730eccd2d0273d7cc06be58c
0,         53,         53,        1,   172800, f7f8933dbdf932dcb1986eaed98545d0
0,         54,         54,        1,   172800, 199f4b3c82e6cb0ecb0e74394154bf32
0,         55,         55,        1,   172800, 0e21058223b531ad3f6fb8bb289b34af
0,         56,         56,        1,   172800, 8c70837de405d4b36d446a9159f57ba3
0,         57,         57,        1,   172800, 0d782e075c65f2ba759f8a021dccf572
0,         58,         58,        1,   172800, 87430f6ee48b286c40c78e3fc7ceeaf7
0,         59,         59,        1,   172800, d806ff6ebc40bb42812f873788dbdee8
0,         60,         60,        1,   172800, b02ef120d410c22bd33dabf2a686cb93
1,     176400,     176400,    22050,    88200, e9ded829730eccd2d0273d7cc06be58c
0,         61,         61,        1,   172800, 46248543769eeb2e15efded578423da8
0,         62,         62,        1,   172800, 8b9e957e917e6c70d5650281dde6e1e1
0,         63,         63,        1,   172800, 83a18014753dfe9352cdb28bb0d04602
0,         64,         64,        1,   172800, 5c149de21e535f917989baba127d9d2f
0,         65,         65,        1,   172800, efabb234ccf0823c5bbf8457ae16967a
0,         66,         66,        1,   172800, 771222f97f0b6ee265f3237d4fbbba08
0,         67,         67,        1,   172800, d55881b0ea5498b4fd597d605ce7a18d
1,     198450,     198450,    22050,    88200, e9ded829730eccd2d0273d7cc06be58c
0,         68,         68,        1,   172800, 7032b78a16d16959aee073de51815e71
0,         69,         69,        1,   172800, 3b677b149f5ef094791e74b1aaa53271
0,         70,         70,        1,   172800, 64cb8378b84f44b8a69c662695766d0e
0,         71,         71,        1,   172800, 44e4da17a880b81cad81d9095ed9e90a
0,         72,         72,        1,   172800, 3b360606b15f41e6fa7ce362a64fb68b
0,         73,         73,        1,   172800, 182f18e8dfcc5cf0b6092ffd5d6e750e
0,         74,         74,        1,   172800, 3131ac3e809f10b757d18f15920b79c5
0,         75,         75,        1,   172800, 4dbe4e1186d2cb70d161152a7c1ca083
1,     220500,     220500,    22050,    88200, e9ded829730eccd2d0273d7cc06be58c
0,         76,         76,        1,   172800, ea5be4ceab8bea53a69116554cba77a1
0,         77,         77,        1,   172800, 64cb0b20617389723d9b1b850820bbac
0,         78,         78,        1,   172800, 8de05c33f2f9748fff2ee171352ede57
0,         79,         79,        1,   172800, 2016add191056615e4a5e5eb8dd5ae81
0,         80,         80,        1,   172800, fb6cc8d256342c4570cc1966cc869f5f
0,         81,         81,        1,   172800, 0c630b3e150aa3493df9106ea0a9c281
0,         82,         82,        1,   172800, 8d818770b5392a2c8d5bebe6c9e97d41
1,     242550,     242550,    22050,    88200, e9ded829730eccd2d0273d7cc06be58c
0,         83,         83,        1,   172800, 597a1750f6ee9598ee226cc95f900482
0,         84,         84,        1,   172800, c221748ebbe4d1fba00437cd1f605327
0,         85,         85,        1,   172800, dfb43569afcaadaa5043f3fe09a3a56a
0,         86,         86,        1,   172800, eff3777b29f1e6bf4c7a39ff82333bfb
0,         87,         87,        1,   172800, 74ad8a96de35eacb695fb4b15d51b278
0,         88,         88,        1,   172800, 3112feb511be74ba2ee286b2cf8d5c8f
0,         89,         89,        1,   172800, 6138adb5c4dc3b0cae3f053f5af04c27
0,         90,         90,        1,   172800, b8ec1c1a803e8f3cb8eafc08c7fe35f9
1,     264600,     264600,    22050,    88200, e9ded829730eccd2d0273d7cc06be58c
0,         91,         91,        1,   172800, d8ce0614ba801d996f60b54f9ce30c49
0,         92,         92,        1,   172800, 27e95414f0ae303eb14af2d3686ee1ee
0,         93,         93,        1,   172800, 556c6ebd9c4e87e342d4ca159689220f
0,         94,         94,        1,   172800, 40e72d918c3fdd9a983fd8ab41075342
0,         95,         95,        1,   172800, e91506e40d998dddecb824836cb238e4
0,         96,         96,        1,   172800, bd2e3186938f5c7cdda06cd33efe23d6
0,         97,         97,        1,   172800, 24c371426e5d16c9aa9e2cb8356b34c1
1,     286650,     286650,    22050,    88200, e9ded829730eccd2d0273d7cc06be58c
0,         98,         98,        1,   172800, b2677ec6a68f2b02d164ca8fa5580ebc
0,         99,         99,        1,   172800, 78a44b7af5aae97539ad5ca8e7c229f5
0,        100,        100,        1,   172800, 1f84af9a506176af8bd2312f923d146f
0,        101,        101,        1,   172800, b9bfe2b42a7d8878c2b0d7c71eb41bf8
0,        102,        102,        1,   172800, 3ff4a9e3e492fc22a1fdbb1d925c354e
0,        103,        103,        1,   172800, 7c19c99b54438a4c52f920a09815d041
0,        104,        104,        1,   172800, 7c19c99b54438a4c52f920a09815d041
0,        105,        105,        1,   172800, 7c19c99b54438a4c52f920a09815d041
1,     308700,     308700,    22050,    88200, e9ded829730eccd2d0273d7cc06be58c
0,        106,        106,        1,   172800, 7c19c99b54438a4c52f920a09815d041
0,        107,        107,        1,   172800, 7c19c99b54438a4c52f920a09815d041
0,        108,        108,        1,   172800, 7c19c99b54438a4c52f920a09815d041
0,        109,        109,        1,   172800, 7c19c99b54438a4c52f920a09815d041
0,        110,        110,        1,   172800, 7c19c99b54438a4c52f920a09815d041
0,        111,        111,        1,   172800, 7c19c99b54438a4c52f920a09815d041
0,        112,        112,        1,   172800, 7c19c99b54438a4c52f920a09815d041
1,     330750,     330750,    22050,    88200, e9ded829730eccd2d0273d7cc06be58c
0,        113,        113,        1,   172800, 7c19c99b54438a4c52f920a09815d041
0,        114,        114,        1,   172800, 7c19c99b54438a4c52f920a09815d041
0,        115,        115,        1,   172800, 7c19c99b54438a4c52f920a09815d041
0,        116,        116,        1,   172800, 7c19c99b54438a4c52f920a09815d041
0,        117,        117,        1,   172800, 46a3e584bc4335a9991d3fc964b9d834
0,        118,        118,        1,   172800, da95aef8c66171186f936b887acab712
0,        119,        119,        1,   172800, 0e9918d0955d0b8a5dbbea1467e938f9
0,        120,        120,        1,   172800, 95911bebba71801735bc3eb908104ebd
1,     352800,     352800,    22050,    88200, e9ded829730eccd2d0273d7cc06be58c
0,        121,        121,        1,   172800, 4da0a192b54e6454251918cc1f3fbc95
0,        122,        122,        1,   172800, 10d022002cf339fdf74c4ac3fca59ce3
0,        123,        123,        1,   172800, 38cb5f01054e058c1108ebbee5c54fba
0,        124,        124,        1,   172800, 06abccbf860634a1b7526f45bda1a2f7
0,        125,        125,        1,   172800, fc8c784537b9d3a06fe2b8bd2796b474
0,        126,        126,        1,   172800, 9a2d597835925f637f19860319e6e6f6
0,        127,        127,        1,   172800, feeaffc64406a9450fa8493286c07f18
1,     374850,     374850,    22050,    88200, e9ded829730eccd2d0273d7cc06be58c
0,        128,        128,        1,   172800, 1af0c12f3e35165f097580ce9d0ed0b1
0,        129,        129,        1,   172800, f5929cddc9a196e3ff28e5a65658256f
0,        130,        130,        1,   172800, 4a4b9c1b3bb2623c1225b5e05bb2068a
0,        131,        131,        1,   172800, eb1b796fee5f0eb68000695e6abd469c
0,        132,        132,        1,   172800, ee684c90ea61e4e8f6812971dce71158
0,        133,        133,        1,   172800, 3336628e337d8fec76bbfdb59fefc645
0,        134,        134,        1,   172800, 4be1aead3b3a433bdcfadf323d361c0c
0,        135,        135,        1,   172800, 93512646e58125cf2cd4ecab8cd820c1
1,     396900,     396900,    22050,    88200, e9ded829730eccd2d0273d7cc06be58c
0,        136,        136,        1,   172800, 28f23c0e9bcc0868d639b28920748d05
0,        137,        137,        1,   172800, c368b15e45c28ce8139a9d854fa6a4bd
0,        138,        138,        1,   172800, 4dc9d6505ca62c06d8c8e935dde016c8
0,        139,        139,        1,   172800, 5eec3a0236797234226d825051fab704
0,        140,        140,        1,   172800, 4556f9905e95c649542eb37caebdcdc1
0,        141,        141,        1,   172800, 2ac847fbf404218775eed877a5814752
0,        142,        142,        1,   172800, f36f0e3ee7d781b6237867bee736d869
1,     418950,     418950,    22050,    88200, 2ea308871cd58a7bf3937d97a3a8e895
0,        143,        143,        1,   172800, 65fe6fde93058b0ab38c942c2b1cd9a5
0,        144,        144,        1,   172800, 8cbb2dd682faa76584609f1d70de0f25
0,        145,        145,        1,   172800, 4532b601a060b4be687cb82e73f8f5aa
0,        146,        146,        1,   172800, b782b7050fdf83f6f8d23c0d13936d86
0,        147,        147,        1,   172800, 78515f4e2243d80e88642aae4165f69c
0,        148,        148,        1,   172800, dc412e802b74761bd302548ed6494af1
0,        149,        149,        1,   172800, 2e7945b988ce03ceea5a3868e7a1fa32
0,        150,        150,        1,   172800, d190d32a81639367112d907991e80964
1,     441000,     441000,    22050,    88200, 30bd2b305b8d37f0417f6b6e63aa8ce8
0,        151,        151,        1,   172800, 89f57cbb7557f4d9be851f5410af1bde
0,        152,        152,        1,   172800, e794d939be69ef9194ebc9fe056a9b35
0,        153,        153,        1,   172800, 4373763afa9dbae030abc7a96ec10e49
0,        154,        154,        1,   172800, 7ba46c7b8b9e748c588af1ef5210fb32
0,        155,        155,        1,   172800, 64b5e4cbad6d961d417232ba2430a327
0,        156,        156,        1,   172800, ea13da057eafeab7bdb9b7ffe481d27c
0,        157,        157,        1,   172800, 214bb14d17f0046460728f7f54fe7cab
1,     463050,     463050,    22050,    88200, 59f704cffd3b4a4418af356becea17bc
0,        158,        158,        1,   172800, bdba914f3ad5b0b710cd6879a8fa3c95
0,        159,        159,        1,   172800, 0ca8a6189468af01cfd4662acbec3a02
0,        160,        160,        1,   172800, c3682dd7954a61df9bb4678e55eb16fa
0,        161,        161,        1,   172800, c618ea007a0485c3f165002d4de92bbe
0,        162,        162,        1,   172800, 5a7b541b566a2e4d29f58fcd430cdbe7
0,        163,        163,        1,   172800, daccc1551c34a8ec9736e8f7f78f3c75
0,        164,        164,        1,   172800, 403b3db896ff76cc847349c17b710e8e
0,        165,        165,        1,   172800, 060c433137e17018e167b6db174b5e5c
1,     485100,     485100,    22050,    88200, 8a1d384151f07981f2b489f1aca79453
0,        166,        166,        1,   172800, 464ab5ed8ee98b69ecead2a7783c7cef
0,        167,        167,        1,   172800, b7148bb6efc89b137aadecb6380e3f49
0,        168,        168,        1,   172800, 475c27b3e915607fa2d4c58c66cd20fd
0,        169,        169,        1,   172800, a5f0ec9b01d8e66b93ff34ae367d5052
0,        170,        170,        1,   172800, 6abbba9e2bd4ef428f95dbe492e9ee29
0,        171,        171,        1,   172800, ca25f9e18f27c191e88ce51c9021cbc4
0,        172,        172,        1,   172800, 8b3cc9ad04d2d6ad5e7842e22f6df1ef
1,     507150,     507150,    22050,    88200, cf2793af17867d8e3fcda72402db9789
0,        173,        173,        1,   172800, 62bd4e79d6f8afabe83d18bfc67bff47
0,        174,        174,        1,   172800, e18b7d4a7085fac6e789264e15e0c576
0,        175,        175,        1,   172800, 557633b0154eae1e9116d6717838eb97
0,        176,        176,        1,   172800, 2fa4c47c6862ed4a2c0893e9199c5369
0,        177,        177,        1,   172800, c42f3eaf824cd40d1416329fc31a7409
0,        178,        178,        1,   172800, 218aca9e0f9073149d96c3bca19a520c
0,        179,        179,        1,   172800, 8368e0fd97217bfa6732793404edd3f9
0,        180,        180,        1,   172800, 8633e983488f5068e9aba26dff3d65f4
1,     529200,     529200,    22050,    88200, 2b8fa9b15888205c75f8a3f97d14ecef
0,        181,        181,        1,   172800, a275b5474ef364b1c03bc0a03338b087
0,        182,        182,        1,   172800, 658ab036ee3e774b827b953b902d7200
0,        183,        183,        1,   172800, f9add5cfd7b2fb08809b4caecb45fbc2
0,        184,        184,        1,   172800, 92e45e9d0f969b68ea367a008ca057ef
0,        185,        185,        1,   172800, 39a87323d1d52c1bc63301136d35d67f
0,        186,        186,        1,   172800, 0ff529c25ebb17a3feefab1a451be95c
0,        187,        187,        1,   172800, f8221339d60b0418085ba78438a46ab7
1,     551250,     551250,    22050,    88200, 2ac65d7da4d8f96347de3e707c4ee342
0,        188,        188,        1,   172800, 9572f2f7f43513b2e85a53219c6acf93
0,        189,        189,        1,   172800, 9572f2f7f43513b2e85a53219c6acf93
0,        190,        190,        1,   172800, 9583401dadfecc4e9dfdcb31cf4077d5
0,        191,        191,        1,   172800, 6b0bcecd1d9f955eebfb45ca741bd46b
0,        192,        192,        1,   172800, 7c5977119d3bed905c3c4613215e3dc2
0,        193,        193,        1,   172800, bb9d43914172871f393266169188c3e2
0,        194,        194,        1,   172800, 9b810c1761d01f2959f06d208f01e5fb
0,        195,        195,        1,   172800, d54bf915bc03ac5b574bff2a3129109f
1,     573300,     573300,    22050,    88200, 13b680165416128f3489da81e13a896b
0,        196,        196,        1,   172800, f42d86f75b1c5eeb4d3faf4fe85ee7c7
0,        197,        197,        1,   172800, 643f13fe005828318546660b53a8c915
0,        198,        198,        1,   172800, e2201cc36c08df917943cf688cc5d145
0,        199,        199,        1,   172800, c6f1487ffd449a37f7e264163b0ba578
0,        200,        200,        1,   172800, 9d11925c2ccbf06a989cd899ee86de03
0,        201,        201,        1,   172800, b702afe6c0f5f8d10babaa3334396ffa
0,        202,        202,        1,   172800, 57fafc7010c5ca8a0750d65b2b326830
1,     595350,     595350,    22050,    88200, 4d3ceeef5c3bdcfd88f6bf2849bad22f
0,        203,        203,        1,   172800, 2e6bc5e5bec919920476f644a2e13cd3
0,        204,        204,        1,   172800, c9644e6f5156ba17a0addfb46c1fd04a
0,        205,        205,        1,   172800, 99294c60f5ca0c76b5a01d7a388df272
0,        206,        206,        1,   172800, 989088ceef7d402ffd06880cb256beea
0,        207,        207,        1,   172800, 0d0a894e577dcfcf8b6b27c136163acc
0,        208,        208,        1,   172800, 008a9883b3055452656524d8f3b0a6c6
0,        209,        209,        1,   172800, 632afdc6c8e560d9f1c6b534b7ae188e
0,        210,        210,        1,   172800, 8b2a3e901ade9153296f9f74a06c6952
1,     617400,     617400,     5880,    23520, 120a99ef9956eed12d5ff0cdfe34d475
0,        211,        211,        1,   172800, 8b2a3e901ade9153296f9f74a06c6952
